<?xml version="1.0" encoding="UTF-8"?>
<svg width="700pt" height="700pt" version="1.1" viewBox="0 0 700 700" xmlns="http://www.w3.org/2000/svg" xmlns:xlink="http://www.w3.org/1999/xlink">
 <defs>
  <symbol id="u" overflow="visible">
   <path d="m3.75-0.21875c-0.19922 0.09375-0.40234 0.16797-0.60938 0.21875-0.21094 0.050781-0.42969 0.078125-0.65625 0.078125-0.67969 0-1.2148-0.1875-1.6094-0.5625-0.39844-0.38281-0.59375-0.89844-0.59375-1.5469 0-0.65625 0.19531-1.1719 0.59375-1.5469 0.39453-0.38281 0.92969-0.57812 1.6094-0.57812 0.22656 0 0.44531 0.027344 0.65625 0.078125 0.20703 0.054687 0.41016 0.13281 0.60938 0.23438v0.84375c-0.19922-0.13281-0.39062-0.23438-0.57812-0.29688s-0.38672-0.09375-0.59375-0.09375c-0.375 0-0.67188 0.12109-0.89062 0.35938-0.21875 0.24219-0.32812 0.57422-0.32812 1 0 0.41797 0.10938 0.74609 0.32812 0.98438 0.21875 0.24219 0.51562 0.35938 0.89062 0.35938 0.20703 0 0.40625-0.03125 0.59375-0.09375s0.37891-0.15625 0.57812-0.28125z"/>
  </symbol>
  <symbol id="d" overflow="visible">
   <path d="m2.75-2.2188c-0.09375-0.039062-0.18359-0.070312-0.26562-0.09375-0.085937-0.019531-0.16797-0.03125-0.25-0.03125-0.25 0-0.44531 0.085938-0.57812 0.25-0.13672 0.15625-0.20312 0.38672-0.20312 0.6875v1.4062h-0.98438v-3.0625h0.98438v0.5c0.125-0.19531 0.26562-0.34375 0.42188-0.4375 0.16406-0.09375 0.36328-0.14062 0.59375-0.14062 0.03125 0 0.0625 0.007813 0.09375 0.015625 0.039062 0 0.097656 0.007812 0.17188 0.015625z"/>
  </symbol>
  <symbol id="a" overflow="visible">
   <path d="m3.5156-1.5312v0.26562h-2.2812c0.019531 0.23047 0.10156 0.40234 0.25 0.51562 0.14453 0.11719 0.34375 0.17188 0.59375 0.17188 0.20703 0 0.41406-0.023437 0.625-0.078125 0.21875-0.0625 0.44141-0.15625 0.67188-0.28125v0.75c-0.23047 0.09375-0.46094 0.16406-0.6875 0.20312-0.23047 0.039062-0.46484 0.0625-0.70312 0.0625-0.55469 0-0.98438-0.14062-1.2969-0.42188-0.30469-0.28125-0.45312-0.67578-0.45312-1.1875 0-0.5 0.14844-0.89062 0.45312-1.1719 0.30078-0.28906 0.71875-0.4375 1.25-0.4375 0.47656 0 0.85938 0.14844 1.1406 0.4375 0.28906 0.29297 0.4375 0.68359 0.4375 1.1719zm-1-0.32812c0-0.1875-0.058594-0.33594-0.17188-0.45312-0.10547-0.11328-0.24219-0.17188-0.40625-0.17188-0.19922 0-0.35547 0.058594-0.46875 0.17188-0.11719 0.10547-0.1875 0.25781-0.21875 0.45312z"/>
  </symbol>
  <symbol id="c" overflow="visible">
   <path d="m1.8438-1.375c-0.21094 0-0.36719 0.039062-0.46875 0.10938-0.10547 0.0625-0.15625 0.16406-0.15625 0.29688 0 0.125 0.039062 0.22656 0.125 0.29688 0.082031 0.0625 0.20312 0.09375 0.35938 0.09375 0.17578 0 0.32812-0.0625 0.45312-0.1875 0.125-0.13281 0.1875-0.30078 0.1875-0.5v-0.10938zm1.4844-0.375v1.75h-0.98438v-0.45312c-0.125 0.1875-0.27344 0.32422-0.4375 0.40625-0.16797 0.082031-0.36719 0.125-0.59375 0.125-0.32422 0-0.58594-0.085938-0.78125-0.26562-0.19922-0.1875-0.29688-0.42969-0.29688-0.73438 0-0.35156 0.125-0.61328 0.375-0.78125 0.25-0.16406 0.63281-0.25 1.1562-0.25h0.57812v-0.078125c0-0.15625-0.0625-0.26953-0.1875-0.34375-0.11719-0.070312-0.30469-0.10938-0.5625-0.10938-0.21094 0-0.40625 0.023437-0.59375 0.0625-0.17969 0.042969-0.33984 0.10547-0.48438 0.1875v-0.75c0.20703-0.039063 0.41406-0.078125 0.625-0.10938 0.20703-0.03125 0.41406-0.046875 0.625-0.046875 0.55078 0 0.94531 0.10938 1.1875 0.32812 0.25 0.21875 0.375 0.57422 0.375 1.0625z"/>
  </symbol>
  <symbol id="b" overflow="visible">
   <path d="m1.5312-3.9219v0.85938h1.0156v0.70312h-1.0156v1.2969c0 0.14844 0.023438 0.24609 0.078125 0.29688 0.0625 0.042969 0.17578 0.0625 0.34375 0.0625h0.5v0.70312h-0.82812c-0.38672 0-0.66406-0.078125-0.82812-0.23438-0.15625-0.16406-0.23438-0.44141-0.23438-0.82812v-1.2969h-0.48438v-0.70312h0.48438v-0.85938z"/>
  </symbol>
  <symbol id="j" overflow="visible">
   <path d="m2.5469-2.6094v-1.6406h0.98438v4.25h-0.98438v-0.4375c-0.13672 0.17969-0.28906 0.30859-0.45312 0.39062-0.15625 0.082031-0.33984 0.125-0.54688 0.125-0.375 0-0.6875-0.14453-0.9375-0.4375-0.24219-0.30078-0.35938-0.69141-0.35938-1.1719 0-0.46875 0.11719-0.85156 0.35938-1.1562 0.25-0.30078 0.5625-0.45312 0.9375-0.45312 0.20703 0 0.39062 0.046875 0.54688 0.14062 0.16406 0.085938 0.31641 0.21484 0.45312 0.39062zm-0.64062 1.9844c0.20703 0 0.36328-0.078125 0.46875-0.23438 0.11328-0.15625 0.17188-0.37891 0.17188-0.67188 0-0.28906-0.058594-0.50781-0.17188-0.65625-0.10547-0.15625-0.26172-0.23438-0.46875-0.23438-0.21094 0-0.37109 0.078125-0.48438 0.23438-0.10547 0.14844-0.15625 0.36719-0.15625 0.65625 0 0.29297 0.050781 0.51562 0.15625 0.67188 0.11328 0.15625 0.27344 0.23438 0.48438 0.23438z"/>
  </symbol>
  <symbol id="i" overflow="visible">
   <path d="m2.0938-0.625c0.20703 0 0.36719-0.078125 0.48438-0.23438 0.11328-0.15625 0.17188-0.37891 0.17188-0.67188 0-0.28906-0.058594-0.50781-0.17188-0.65625-0.11719-0.15625-0.27734-0.23438-0.48438-0.23438-0.21094 0-0.37109 0.078125-0.48438 0.23438-0.10547 0.14844-0.15625 0.36719-0.15625 0.65625 0 0.29297 0.050781 0.51562 0.15625 0.67188 0.11328 0.15625 0.27344 0.23438 0.48438 0.23438zm-0.64062-1.9844c0.13281-0.17578 0.28125-0.30469 0.4375-0.39062 0.16406-0.09375 0.35156-0.14062 0.5625-0.14062 0.38281 0 0.69531 0.15234 0.9375 0.45312 0.23828 0.30469 0.35938 0.6875 0.35938 1.1562 0 0.48047-0.12109 0.87109-0.35938 1.1719-0.24219 0.29297-0.55469 0.4375-0.9375 0.4375-0.21094 0-0.39844-0.042969-0.5625-0.125-0.15625-0.082031-0.30469-0.21094-0.4375-0.39062v0.4375h-0.98438v-4.25h0.98438z"/>
  </symbol>
  <symbol id="g" overflow="visible">
   <path d="m0.0625-3.0625h0.98438l0.82812 2.0781 0.6875-2.0781h0.98438l-1.2812 3.3594c-0.13672 0.33203-0.29297 0.56641-0.46875 0.70312-0.16797 0.13281-0.39062 0.20312-0.67188 0.20312h-0.5625v-0.64062h0.29688c0.16406 0 0.28516-0.027344 0.35938-0.078125 0.082031-0.054687 0.14453-0.14844 0.1875-0.28125l0.03125-0.078125z"/>
  </symbol>
  <symbol id="f" overflow="visible">
   <path d="m0.51562-4.0781h1.1719l1.4844 2.7969v-2.7969h1v4.0781h-1.1719l-1.4844-2.7969v2.7969h-1z"/>
  </symbol>
  <symbol id="h" overflow="visible">
   <path d="m3.5469-1.8594v1.8594h-0.98438v-1.4219c0-0.26953-0.007812-0.45312-0.015625-0.54688-0.011719-0.10156-0.03125-0.17578-0.0625-0.21875-0.042969-0.0625-0.09375-0.10938-0.15625-0.14062-0.0625-0.039063-0.13672-0.0625-0.21875-0.0625-0.21094 0-0.37109 0.078125-0.48438 0.23438-0.11719 0.15625-0.17188 0.375-0.17188 0.65625v1.5h-0.98438v-4.25h0.98438v1.6406c0.14453-0.17578 0.30078-0.30469 0.46875-0.39062 0.16406-0.09375 0.34766-0.14062 0.54688-0.14062 0.35156 0 0.61719 0.10938 0.79688 0.32812 0.1875 0.21875 0.28125 0.53906 0.28125 0.95312z"/>
  </symbol>
  <symbol id="t" overflow="visible">
   <path d="m0.03125-4.0781h3.75v0.79688h-1.3438v3.2812h-1.0625v-3.2812h-1.3438z"/>
  </symbol>
  <symbol id="s" overflow="visible">
   <path d="m2.5469-0.51562c-0.13672 0.17969-0.28906 0.30859-0.45312 0.39062-0.15625 0.085938-0.33984 0.125-0.54688 0.125-0.375 0-0.6875-0.14453-0.9375-0.4375-0.24219-0.28906-0.35938-0.66406-0.35938-1.125 0-0.45703 0.11719-0.83203 0.35938-1.125 0.25-0.28906 0.5625-0.4375 0.9375-0.4375 0.20703 0 0.39062 0.042969 0.54688 0.125 0.16406 0.085938 0.31641 0.21484 0.45312 0.39062v-0.45312h0.98438v2.75c0 0.48828-0.15625 0.86328-0.46875 1.125-0.30469 0.25781-0.75 0.39062-1.3438 0.39062-0.1875 0-0.375-0.015625-0.5625-0.046875-0.17969-0.023438-0.35547-0.0625-0.53125-0.125v-0.76562c0.16406 0.10156 0.33203 0.17578 0.5 0.21875 0.16406 0.050781 0.33203 0.078125 0.5 0.078125 0.32031 0 0.55469-0.074219 0.70312-0.21875 0.14453-0.13672 0.21875-0.35156 0.21875-0.65625zm-0.64062-1.9062c-0.19922 0-0.35547 0.078125-0.46875 0.23438-0.11719 0.14844-0.17188 0.35547-0.17188 0.625 0 0.28125 0.050781 0.49609 0.15625 0.64062 0.11328 0.14844 0.27344 0.21875 0.48438 0.21875 0.20703 0 0.36328-0.070313 0.46875-0.21875 0.11328-0.15625 0.17188-0.36719 0.17188-0.64062 0-0.26953-0.058594-0.47656-0.17188-0.625-0.10547-0.15625-0.26172-0.23438-0.46875-0.23438z"/>
  </symbol>
  <symbol id="r" overflow="visible">
   <path d="m0.46875-3.0625h0.98438v3.0625h-0.98438zm0-1.1875h0.98438v0.79688h-0.98438z"/>
  </symbol>
  <symbol id="q" overflow="visible">
   <path d="m2.4844-4.25v0.64062h-0.54688c-0.13672 0-0.23047 0.027344-0.28125 0.078125-0.054688 0.054688-0.078125 0.14062-0.078125 0.26562v0.20312h0.82812v0.70312h-0.82812v2.3594h-0.98438v-2.3594h-0.48438v-0.70312h0.48438v-0.20312c0-0.33203 0.09375-0.57812 0.28125-0.73438 0.1875-0.16406 0.47266-0.25 0.85938-0.25z"/>
  </symbol>
  <symbol id="e" overflow="visible">
   <path d="m1.9219-2.4375c-0.21875 0-0.38672 0.078125-0.5 0.23438-0.10547 0.15625-0.15625 0.38281-0.15625 0.67188 0 0.29297 0.050781 0.51562 0.15625 0.67188 0.11328 0.15625 0.28125 0.23438 0.5 0.23438s0.37891-0.078125 0.48438-0.23438c0.11328-0.15625 0.17188-0.37891 0.17188-0.67188 0-0.28906-0.058594-0.51562-0.17188-0.67188-0.10547-0.15625-0.26562-0.23438-0.48438-0.23438zm0-0.70312c0.53125 0 0.94141 0.14844 1.2344 0.4375 0.30078 0.28125 0.45312 0.67188 0.45312 1.1719 0 0.51172-0.15234 0.90625-0.45312 1.1875-0.29297 0.28125-0.70312 0.42188-1.2344 0.42188-0.52344 0-0.93359-0.14062-1.2344-0.42188-0.30469-0.28125-0.45312-0.67578-0.45312-1.1875 0-0.5 0.14844-0.89062 0.45312-1.1719 0.30078-0.28906 0.71094-0.4375 1.2344-0.4375z"/>
  </symbol>
  <symbol id="p" overflow="visible">
   <path d="m3.3125-2.5469c0.11328-0.1875 0.25391-0.33203 0.42188-0.4375 0.17578-0.10156 0.36719-0.15625 0.57812-0.15625 0.34375 0 0.60938 0.10938 0.79688 0.32812s0.28125 0.53906 0.28125 0.95312v1.8594h-0.98438v-1.5938-0.0625-0.125c0-0.21875-0.03125-0.375-0.09375-0.46875s-0.16797-0.14062-0.3125-0.14062c-0.1875 0-0.33594 0.078125-0.4375 0.23438-0.09375 0.14844-0.14062 0.36719-0.14062 0.65625v1.5h-0.98438v-1.5938c0-0.34375-0.03125-0.5625-0.09375-0.65625-0.054688-0.09375-0.15625-0.14062-0.3125-0.14062-0.1875 0-0.33594 0.078125-0.4375 0.23438-0.09375 0.14844-0.14062 0.36719-0.14062 0.65625v1.5h-0.98438v-3.0625h0.98438v0.45312c0.11328-0.17578 0.25-0.30469 0.40625-0.39062 0.15625-0.09375 0.32812-0.14062 0.51562-0.14062 0.20703 0 0.39062 0.054687 0.54688 0.15625 0.16406 0.10547 0.29688 0.25 0.39062 0.4375z"/>
  </symbol>
  <symbol id="o" overflow="visible">
   <path d="m0.4375-1.1875v-1.875h0.98438v0.3125 0.625 0.5c0 0.24219 0.003906 0.41797 0.015625 0.53125 0.007812 0.10547 0.03125 0.18359 0.0625 0.23438 0.039062 0.0625 0.09375 0.11719 0.15625 0.15625 0.0625 0.03125 0.13281 0.046875 0.21875 0.046875 0.20703 0 0.36719-0.078125 0.48438-0.23438 0.11328-0.15625 0.17188-0.375 0.17188-0.65625v-1.5156h0.98438v3.0625h-0.98438v-0.4375c-0.14844 0.17969-0.30469 0.30859-0.46875 0.39062-0.16797 0.082031-0.35156 0.125-0.54688 0.125-0.35547 0-0.625-0.10938-0.8125-0.32812-0.17969-0.21875-0.26562-0.53125-0.26562-0.9375z"/>
  </symbol>
  <symbol id="n" overflow="visible">
   <path d="m3.5469-1.8594v1.8594h-0.98438v-1.4219c0-0.26953-0.007812-0.45312-0.015625-0.54688-0.011719-0.10156-0.03125-0.17578-0.0625-0.21875-0.042969-0.0625-0.09375-0.10938-0.15625-0.14062-0.0625-0.039063-0.13672-0.0625-0.21875-0.0625-0.21094 0-0.37109 0.078125-0.48438 0.23438-0.11719 0.15625-0.17188 0.375-0.17188 0.65625v1.5h-0.98438v-3.0625h0.98438v0.45312c0.14453-0.17578 0.30078-0.30469 0.46875-0.39062 0.16406-0.09375 0.34766-0.14062 0.54688-0.14062 0.35156 0 0.61719 0.10938 0.79688 0.32812 0.1875 0.21875 0.28125 0.53906 0.28125 0.95312z"/>
  </symbol>
  <symbol id="m" overflow="visible">
   <path d="m0.51562-4.0781h1.75c0.50781 0 0.90625 0.11719 1.1875 0.34375 0.28125 0.23047 0.42188 0.55859 0.42188 0.98438 0 0.42969-0.14062 0.75781-0.42188 0.98438-0.28125 0.23047-0.67969 0.34375-1.1875 0.34375h-0.70312v1.4219h-1.0469zm1.0469 0.76562v1.1406h0.57812c0.20703 0 0.36328-0.046875 0.46875-0.14062 0.11328-0.10156 0.17188-0.25 0.17188-0.4375 0-0.17578-0.058594-0.3125-0.17188-0.40625-0.10547-0.10156-0.26172-0.15625-0.46875-0.15625z"/>
  </symbol>
  <symbol id="l" overflow="visible">
   <path d="m0.46875-3.0625h0.98438v3.0156c0 0.40625-0.10156 0.71094-0.29688 0.92188-0.19922 0.21875-0.48438 0.32812-0.85938 0.32812h-0.48438v-0.64062h0.17188c0.1875 0 0.3125-0.042969 0.375-0.125 0.070313-0.085938 0.10938-0.24609 0.10938-0.48438zm0-1.1875h0.98438v0.79688h-0.98438z"/>
  </symbol>
  <symbol id="k" overflow="visible">
   <path d="m2.9375-2.9688v0.79688c-0.125-0.082031-0.25781-0.14453-0.39062-0.1875-0.13672-0.050781-0.27734-0.078125-0.42188-0.078125-0.27344 0-0.48438 0.085938-0.64062 0.25-0.14844 0.15625-0.21875 0.375-0.21875 0.65625 0 0.29297 0.070313 0.51562 0.21875 0.67188 0.15625 0.15625 0.36719 0.23438 0.64062 0.23438 0.15625 0 0.30078-0.019531 0.4375-0.0625 0.13281-0.039062 0.25781-0.10938 0.375-0.20312v0.79688c-0.14844 0.0625-0.30469 0.10156-0.46875 0.125-0.15625 0.03125-0.3125 0.046875-0.46875 0.046875-0.55469 0-0.98438-0.14062-1.2969-0.42188s-0.46875-0.67578-0.46875-1.1875c0-0.5 0.15625-0.89062 0.46875-1.1719 0.3125-0.28906 0.74219-0.4375 1.2969-0.4375 0.16406 0 0.32031 0.015625 0.46875 0.046875 0.15625 0.03125 0.3125 0.074219 0.46875 0.125z"/>
  </symbol>
 </defs>
 <g>
  <path d="m494.14 436.35c0 12.656 0.22266 25.312 0 37.855-0.22266 9.8555-7.8398 17.586-17.695 17.809h-3.2461-64.176-107.63-101.59-32.594c-4.3672 0-8.9609 0.33594-13.328 0-9.1836-0.78516-16.016-8.625-16.238-17.695v-3.5859-23.855-93.07-110.99-78.062c0-4.5938-0.55859-9.8555 0.22266-14.336 3.2461-18.367 24.977-14.672 38.641-14.672h17.809c14.449 0 14.449-22.398 0-22.398-12.992 0-25.984-0.33594-38.863 0-22.848 0.44922-39.984 18.703-40.207 41.328-0.11328 19.938 0 39.984 0 59.922v110.66 105.28 32.93c0 6.4961-0.33594 12.992 0.89453 19.375 3.6953 19.824 22.062 31.809 41.215 31.922h22.289 94.641 114.69 78.625c9.0703 0 17.473 0 26.098-3.9219 13.551-6.2734 22.062-20.047 22.848-34.719 0.33594-6.832 0-13.664 0-20.496v-18.93c-0.003906-14.68-22.402-14.793-22.402-0.34375z"/>
  <path d="m573.33 86.129c0-16.016-12.992-28.895-28.895-28.895l-320.77-0.003906c-16.016 0-28.895 12.992-28.895 28.895v320.66c0 16.016 12.992 28.895 28.895 28.895h320.66c16.016 0 28.895-12.992 28.895-28.895v-320.65zm-68.098 157.47-223.21 128.8v-259.62l223.21 128.8 1.793 1.0078z"/>
  <path d="m499.63 233.97c-25.09 14.559-50.289 29.008-75.375 43.566-40.098 23.07-80.078 46.258-120.18 69.328-9.1836 5.2656-18.367 10.641-27.551 15.902 5.6016 3.2461 11.199 6.4961 16.801 9.6328v-87.922-139.55-32.145c-5.6016 3.2461-11.199 6.4961-16.801 9.6328 25.426 14.672 50.848 29.344 76.383 44.016 40.207 23.184 80.414 46.367 120.62 69.551 9.2969 5.375 18.703 10.754 28 16.129v-19.375c-0.78516 0.5625-1.3477 0.89844-1.9062 1.2344-12.434 7.2812-1.2305 26.543 11.312 19.375 0.55859-0.33594 1.2305-0.67188 1.793-1.0078 7.2812-4.2578 7.2812-15.121 0-19.375-25.09-14.559-50.176-29.008-75.375-43.457-40.434-23.297-80.863-46.703-121.41-70-9.4062-5.375-18.816-10.863-28.223-16.238-7.3906-4.2578-16.801 1.1211-16.801 9.6328v87.922 139.55 32.145c0 8.5117 9.5195 13.887 16.801 9.6328 25.09-14.559 50.289-29.008 75.375-43.566 40.098-23.07 80.078-46.258 120.18-69.328 9.1836-5.2656 18.367-10.641 27.551-15.902 12.539-7.2891 1.2266-26.664-11.203-19.383z"/>
  <path d="m584.53 86.129c-0.55859-22.512-18.145-39.762-40.543-40.098-4.7031-0.11328-9.2969 0-14 0h-71.457-189.28c-15.008 0-30.016-0.22266-44.91 0-21.168 0.33594-38.754 15.793-40.656 37.07-0.33594 4.0312-0.11328 8.0625-0.11328 11.984v163.63 145.6c0 14.895 6.1602 28.449 19.039 36.625 8.0625 5.0391 17.023 5.9375 26.098 5.9375h58.688 192.3 59.246c9.0703 0 17.809-0.78516 25.871-5.6016 13.215-7.8398 19.602-21.727 19.711-36.734 0.11328-48.273 0-96.434 0-144.7v-164.41c0.003906-3.1406 0.003906-6.2773 0.003906-9.3008 0-14.449-22.398-14.449-22.398 0v119.39 176.06 20.719c0 7.0547-0.55859 13.664-6.7188 18.48-5.0391 4.0312-10.641 3.6953-16.688 3.6953h-22.176-177.86-82.434-24.414c-4.1445 0-8.7344 0.44922-12.656-0.55859-16.91-4.2578-13.215-25.199-13.215-38.414v-74.816-183.9c0-13.551-0.22266-27.105 0-40.543 0.22266-10.414 8.1758-17.922 18.48-18.031h14.672 166.1c45.809 0 91.617-0.22266 137.54 0 10.414 0 19.039 6.7188 19.375 17.695 0.33203 14.559 22.73 14.559 22.395 0.22266z"/>
  <path d="m494.14 242.59c0-0.67188 0.11328-1.3438 0.11328-2.1289 1.0078-1.6797 1.9023-3.2461 2.9102-4.9297 2.2383-2.2383 1.457-1.0078 0-0.22266s-2.8008 1.5664-4.2578 2.4648c-5.375 3.1367-10.754 6.1602-16.129 9.2969-17.473 10.078-35.055 20.273-52.527 30.352-39.199 22.625-78.398 45.246-117.71 67.984-6.6094 3.8086-13.215 7.6172-19.938 11.535-1.793 1.0078-3.5859 2.1289-5.4883 3.1367-1.793 1.0078-2.8008 0.55859-0.55859 0.22266 2.9102 0.33594 5.7109 0.78516 8.625 1.1211-0.33594-0.22266-0.67188-0.44922-1.0078-0.55859 1.6797 2.2383 3.4727 4.4805 5.1523 6.7188 0.78516 2.0156 0 2.0156 0 0v-4.8164-18.594-60.703-135.86-22.961-6.2734c0-2.1289 0.89453-2.8008 0-0.44922-1.6797 2.2383-3.4727 4.4805-5.1523 6.7188 0.33594-0.22266 0.67188-0.44922 1.0078-0.55859-2.9102 0.33594-5.7109 0.78516-8.625 1.1211-2.0156-0.33594-1.5664-1.0078 0.11328 0 1.457 0.78516 2.8008 1.5664 4.2578 2.4648 5.375 3.1367 10.754 6.1602 16.129 9.2969 17.473 10.078 35.055 20.273 52.527 30.352 39.199 22.625 78.398 45.246 117.71 67.984 6.6094 3.8086 13.215 7.6172 19.938 11.535 1.793 1.0078 3.5859 2.1289 5.4883 3.1367 1.457 0.78516 2.6875 2.3516 0.33594 0-1.0078-1.6797-1.9023-3.2461-2.9102-4.9297 0.11328 0.33594 0.11328 0.55859 0.22266 0.89453 3.6953 13.887 25.312 8.0625 21.617-5.9375-2.0156-7.6172-10.977-11.09-17.246-14.672-10.977-6.3828-21.953-12.656-33.039-19.039-31.695-18.367-63.504-36.625-95.199-54.992-24.305-14-48.719-28.113-73.023-42.113-2.1289-1.2305-4.2578-2.5742-6.3828-3.6953-9.0703-4.8164-19.488 0.44922-20.16 10.977-0.33594 5.9375 0 11.984 0 17.922v95.871 105.28 29.566c0 1.5664-0.11328 3.1367 0 4.7031 0.67188 10.863 11.426 15.457 20.496 10.641 19.711-10.527 38.863-22.398 58.238-33.602 32.258-18.594 64.398-37.184 96.656-55.777 20.609-11.871 41.441-23.52 61.824-35.727 4.4805-2.6875 8.1758-6.4961 8.1758-12.207 0.21484-15.004-22.184-15.004-22.184-0.55469z"/>
  <use x="70" y="576.800781" xlink:href="#u"/>
  <use x="74.109375" y="576.800781" xlink:href="#d"/>
  <use x="76.871094" y="576.800781" xlink:href="#a"/>
  <use x="80.667969" y="576.800781" xlink:href="#c"/>
  <use x="84.449219" y="576.800781" xlink:href="#b"/>
  <use x="87.125" y="576.800781" xlink:href="#a"/>
  <use x="90.921875" y="576.800781" xlink:href="#j"/>
  <use x="96.882812" y="576.800781" xlink:href="#i"/>
  <use x="100.890625" y="576.800781" xlink:href="#g"/>
  <use x="106.488281" y="576.800781" xlink:href="#f"/>
  <use x="111.175781" y="576.800781" xlink:href="#a"/>
  <use x="114.976562" y="576.800781" xlink:href="#h"/>
  <use x="118.960938" y="576.800781" xlink:href="#c"/>
  <use x="124.691406" y="576.800781" xlink:href="#t"/>
  <use x="128.511719" y="576.800781" xlink:href="#g"/>
  <use x="132.160156" y="576.800781" xlink:href="#c"/>
  <use x="135.9375" y="576.800781" xlink:href="#s"/>
  <use x="139.949219" y="576.800781" xlink:href="#r"/>
  <use x="70" y="582.398437" xlink:href="#q"/>
  <use x="72.4375" y="582.398437" xlink:href="#d"/>
  <use x="75.199219" y="582.398437" xlink:href="#e"/>
  <use x="79.046875" y="582.398437" xlink:href="#p"/>
  <use x="86.828125" y="582.398437" xlink:href="#b"/>
  <use x="89.507812" y="582.398437" xlink:href="#h"/>
  <use x="93.492188" y="582.398437" xlink:href="#a"/>
  <use x="99.242188" y="582.398437" xlink:href="#f"/>
  <use x="103.929688" y="582.398437" xlink:href="#e"/>
  <use x="107.773438" y="582.398437" xlink:href="#o"/>
  <use x="111.761719" y="582.398437" xlink:href="#n"/>
  <use x="117.699219" y="582.398437" xlink:href="#m"/>
  <use x="121.800781" y="582.398437" xlink:href="#d"/>
  <use x="124.5625" y="582.398437" xlink:href="#e"/>
  <use x="128.410156" y="582.398437" xlink:href="#l"/>
  <use x="130.332031" y="582.398437" xlink:href="#a"/>
  <use x="134.128906" y="582.398437" xlink:href="#k"/>
  <use x="137.449219" y="582.398437" xlink:href="#b"/>
 </g>
</svg>
